PathFileType	4	(X/Y/Z)	/Users/visionmauri/Downloads/Videos/OAW09-top_Sports2D/OAW09-top_Sports2D_px_person00.trc
DataRate	CameraRate	NumFrames	NumMarkers	Units	OrigDataRate	OrigDataStartFrame	OrigNumFrames
30.0	30.0	8	22	m	30.0	1290	2065
Frame#	Time	Hip			RHip			RKnee			RAnkle			RBigToe			RSmallToe			RHeel			LHip			LKnee			LAnkle			LBigToe			LSmallToe			LHeel			Neck			Head			Nose			RShoulder			RElbow			RWrist			LShoulder			LElbow			LWrist			
		X1	Y1	Z1	X2	Y2	Z2	X3	Y3	Z3	X4	Y4	Z4	X5	Y5	Z5	X6	Y6	Z6	X7	Y7	Z7	X8	Y8	Z8	X9	Y9	Z9	X10	Y10	Z10	X11	Y11	Z11	X12	Y12	Z12	X13	Y13	Z13	X14	Y14	Z14	X15	Y15	Z15	X16	Y16	Z16	X17	Y17	Z17	X18	Y18	Z18	X19	Y19	Z19	X20	Y20	Z20	X21	Y21	Z21	X22	Y22	Z22
1290	43.02083333333333	538.7343667881688	673.0802051334667	0.0	560.237899456016	674.8123885618114	0.0	548.0362762117866	761.6789145827394	0.0	538.8776836896054	846.3355057521434	0.0	534.9085653037849	858.3597036835886	0.0	549.6604627904511	863.4577224121037	0.0	537.0711250514348	862.4656908938886	0.0	516.939468735099	675.638854953151	0.0	514.0355567728188	756.2560640841693	0.0	512.7855001448022	829.5209106226006	0.0	511.0781507193673	837.7484242765295	0.0	501.3355114696121	841.2794508584943	0.0	514.5053067001865	842.9414820701004	0.0	537.9782874517404	568.838569152482	0.0	537.190655758325	529.1589851353432	0.0	531.050811494521	558.6845734933502	0.0	576.6245297155207	579.6065374571754	0.0	593.3117267788447	636.5869940600478	0.0	579.5570855757171	681.352257114583	0.0	499.233925001729	579.6002141779239	0.0	489.15249932237896	636.4817156623247	0.0	487.41298771272216	689.7584633558763	0.0
1291	43.05418281653746	538.7537561363774	673.0312856978085	0.0	559.6632434431164	674.5992307802389	0.0	547.7100115213844	761.7861037174231	0.0	538.8262386297679	846.068217977059	0.0	535.2320409517819	858.4865599459195	0.0	549.6880167881486	863.4757036447342	0.0	537.2330196253123	862.0444237536527	0.0	517.1127283741652	675.0700055966021	0.0	514.8188778250596	756.483039731829	0.0	514.1878036687258	828.2038157547934	0.0	509.6739994928063	830.587945767928	0.0	501.3065591570195	835.4143814608942	0.0	516.1395957021483	841.843809252051	0.0	536.5491599571137	571.0176562988039	0.0	533.7489735664212	532.2819405718047	0.0	526.6303016707204	560.7304524227815	0.0	575.9004955396082	580.6633298368748	0.0	592.3624276724767	635.7597246752096	0.0	578.1730816507936	679.5940709813211	0.0	498.2605908462146	581.3258446921797	0.0	489.7829618874026	636.2958382985446	0.0	488.4001987385803	689.7457882261797	0.0
1292	43.087532299741596	538.2280599780158	673.3298485118262	0.0	558.7584514991207	674.9133788275647	0.0	547.2750213031176	761.9843907427053	0.0	538.8083847416859	844.7704593575208	0.0	535.2480116695175	859.0465416071056	0.0	549.2872184070711	863.5913394820114	0.0	537.3057606745978	860.880897792178	0.0	517.2546437476732	675.2686753906784	0.0	515.7367166651961	756.1787341312954	0.0	515.8854058587568	824.7560491449977	0.0	509.1613532884706	823.8510493262559	0.0	502.014963543993	829.9102945344007	0.0	517.9487109891396	838.6018894953855	0.0	534.6297539501808	573.3556466174225	0.0	528.261725048522	536.9175852338134	0.0	522.7883856299082	564.209949738732	0.0	574.9658059044432	582.0116579234508	0.0	590.998420630949	636.1733584442185	0.0	576.5327148543824	678.9979610215443	0.0	496.78577741930616	583.6241596443095	0.0	489.59735040651606	638.2147307621574	0.0	489.3326923516724	690.4835230091426	0.0
1293	43.12088178294573	537.6932724623232	673.7833442668544	0.0	558.091168731724	675.2289453999267	0.0	547.0139647800818	761.5410054914387	0.0	538.940453623412	841.2957952613978	0.0	535.3420301077822	860.2321778562191	0.0	548.9362725959653	863.9665335514915	0.0	537.462051461938	857.971996574102	0.0	517.3539098626196	676.1125509984568	0.0	516.2925181300094	755.1682908332592	0.0	517.7125255547394	821.1626795309493	0.0	509.2318554152091	818.4130198060446	0.0	502.939950873459	825.8337159172357	0.0	519.750306801659	834.9466621207043	0.0	532.6706100177182	574.2105929004314	0.0	523.1237070537376	539.4547759082028	0.0	519.6987202062392	566.2264431915472	0.0	573.5702065067762	582.6298145885145	0.0	589.6109180196897	636.9973136288859	0.0	575.1698413232612	679.3876886151297	0.0	495.3147764698381	585.4096969657231	0.0	488.756127318142	641.2252386121497	0.0	489.78641319309287	691.6071693660105	0.0
1294	43.154231266149864	536.9640967223347	673.6310472976197	0.0	557.5358775415615	675.0531215291569	0.0	546.9930470474976	759.9978620527834	0.0	539.3645953143823	836.1319334744322	0.0	535.8151882950764	861.9849360587252	0.0	549.2434497788184	864.2672990949125	0.0	537.6138772613687	853.2323371164744	0.0	517.0483886671442	676.3433077964909	0.0	516.0539901041063	753.6914656560015	0.0	519.0254675029407	819.0594271108862	0.0	510.01588625978115	816.666527469528	0.0	503.45701420857745	824.3459603668498	0.0	520.9577196592119	832.5305421549265	0.0	530.9842588228778	574.0272211359244	0.0	520.3420855566776	539.4859458653373	0.0	517.4152426757331	567.0215911150282	0.0	571.6930720450922	582.4311090755195	0.0	588.187320817299	637.4484908837263	0.0	574.2856995918777	680.058079607224	0.0	494.3032245704954	586.1939000521437	0.0	487.63323669529603	642.7746264621193	0.0	489.2158292272812	692.1134178511778	0.0
1295	43.187580749354	535.6047292657772	672.443795513385	0.0	556.4814174241749	674.3183988865278	0.0	547.1373801034362	757.3659375034538	0.0	540.2019594148852	830.4590128247222	0.0	536.7323616982716	862.9748084479138	0.0	550.0538458806227	863.3776198651065	0.0	537.6465378234477	847.2995979001648	0.0	515.9476449662981	675.2136427689447	0.0	515.0969840001117	752.311253236165	0.0	519.4092175739898	818.5605163954779	0.0	511.74784899422474	819.0394826711571	0.0	503.51931373718213	825.3668981084714	0.0	521.1937841746918	832.055498035112	0.0	529.6741071094629	573.8731917591398	0.0	520.010923018566	538.7188591692983	0.0	515.6340032970625	567.813582700988	0.0	569.7430522154319	581.9402848529127	0.0	586.4367405300015	637.56658599576	0.0	573.5552287619221	680.5396499383115	0.0	493.88722966420073	586.0231124791181	0.0	486.55246688363553	641.8798446723625	0.0	487.51196080233416	691.3110119300374	0.0
1296	43.22093023255813	533.7593652678185	670.9261247314581	0.0	554.7477541797516	673.4677952078969	0.0	547.2673991205721	753.8295447703385	0.0	541.2163160277579	824.0077714408459	0.0	537.8762341854094	861.2191503990132	0.0	550.762238113473	860.0994771934699	0.0	537.9239962005344	840.0186560024295	0.0	514.1002115380403	673.8269404768755	0.0	514.0310277260444	751.1883823327927	0.0	519.0998624243713	818.6740820559878	0.0	513.8923847680611	822.7989072910083	0.0	503.50058163146895	827.5646445920257	0.0	520.8245345580411	833.0399513437856	0.0	528.9055997735336	573.0121866748043	0.0	521.3064784071044	537.9612092981899	0.0	514.019350316854	567.2591192465694	0.0	568.2777119623153	581.1162724198908	0.0	584.5052604839597	637.4107576942902	0.0	572.8433260644982	680.7159412481697	0.0	493.8032858389111	584.6955261454901	0.0	485.59942774436456	639.7202859542075	0.0	484.96052585129297	689.1782423050707	0.0
1297	43.254279715762266	531.713566209323	669.7079453639773	0.0	552.6009564070021	672.6547437640953	0.0	547.0704923224216	749.7373193758193	0.0	542.0150520145302	815.7663409572665	0.0	539.0692273438292	856.2644123079563	0.0	551.3065102696456	854.2789615721376	0.0	538.6843838681365	830.3253034290968	0.0	511.7806032932482	673.0980656027338	0.0	513.3868546962351	750.1128781858623	0.0	518.5904755722676	818.8294686046669	0.0	515.7832679511524	825.8060181238667	0.0	503.84353192686154	829.8073270026248	0.0	520.3873271783477	834.3839176550891	0.0	528.7546195939759	570.3563675558687	0.0	523.8415212405192	536.455785874806	0.0	512.93310459588	563.7743836304612	0.0	567.467350228222	579.5878216197492	0.0	582.8505947138348	636.7024367906374	0.0	572.4389785187234	680.4852952306001	0.0	493.75809879835504	581.9735467757572	0.0	484.5054461880289	637.184472985196	0.0	481.8082423453287	686.1456554030487	0.0
